<?xml version="1.0" standalone="no"?>
<!DOCTYPE svg PUBLIC "-//W3C//DTD SVG 20010904//EN"
 "http://www.w3.org/TR/2001/REC-SVG-20010904/DTD/svg10.dtd">
<svg version="1.0" xmlns="http://www.w3.org/2000/svg"
 width="1087.000000pt" height="306.000000pt" viewBox="0 0 1087.000000 306.000000"
 preserveAspectRatio="xMidYMid meet">

<g transform="translate(0.000000,306.000000) scale(0.100000,-0.100000)"
fill="#000000" stroke="none">
<path d="M1245 2854 c-11 -3 -49 -12 -85 -21 -380 -94 -690 -489 -782 -997
-29 -159 -31 -440 -4 -591 62 -347 216 -643 427 -825 96 -82 167 -125 279
-167 213 -80 428 -66 639 42 65 33 231 157 231 173 0 4 -18 25 -39 46 l-39 38
-69 -55 c-114 -92 -192 -131 -323 -162 -175 -40 -381 10 -549 134 -275 204
-460 626 -461 1054 -1 739 484 1314 1015 1202 116 -25 256 -99 353 -189 l43
-39 39 38 c22 22 40 42 40 47 0 4 -35 37 -77 73 -86 72 -239 154 -338 180 -60
16 -262 29 -300 19z"/>
<path d="M1214 2271 c-174 -50 -268 -169 -281 -356 -7 -97 14 -187 58 -257 64
-100 142 -144 407 -233 189 -63 250 -99 296 -169 37 -57 49 -129 36 -211 -13
-83 -37 -132 -86 -175 -71 -62 -115 -75 -249 -75 -138 0 -189 17 -259 83 -38
37 -96 141 -96 174 0 27 -15 29 -85 17 -73 -14 -73 -15 -50 -92 63 -207 230
-316 486 -317 170 0 316 53 396 145 134 152 135 452 3 584 -73 73 -122 98
-335 171 -183 63 -243 90 -290 131 -113 100 -109 323 9 412 56 44 125 60 229
55 155 -6 242 -64 289 -191 15 -43 25 -56 37 -53 9 3 36 10 61 16 25 6 51 13
57 15 10 3 7 21 -10 69 -68 187 -219 277 -461 275 -64 0 -123 -7 -162 -18z"/>
<path d="M7830 2036 c-92 -26 -142 -56 -214 -128 -82 -84 -117 -147 -147 -268
-18 -72 -21 -103 -16 -220 8 -206 52 -333 150 -433 183 -185 517 -196 704 -24
82 76 141 185 157 290 l7 47 -78 0 -78 0 -22 -73 c-56 -178 -191 -265 -370
-237 -86 14 -144 43 -193 96 -81 88 -114 190 -113 354 0 225 69 367 211 437
73 35 191 43 278 18 77 -22 153 -95 180 -172 l19 -53 78 0 79 0 -7 43 c-12 69
-55 149 -115 208 -64 64 -110 91 -197 113 -73 19 -247 20 -313 2z"/>
<path d="M8980 2036 c-94 -27 -142 -56 -214 -128 -116 -118 -166 -252 -166
-449 0 -357 153 -570 440 -611 286 -42 527 130 575 410 l7 42 -79 0 -78 0 -23
-73 c-57 -179 -190 -265 -369 -237 -86 14 -144 43 -193 96 -81 88 -114 190
-113 354 0 225 69 367 211 437 73 35 191 43 278 18 77 -22 153 -95 180 -172
l19 -53 77 0 c90 0 88 -3 58 91 -36 114 -132 215 -247 260 -47 18 -82 23 -188
25 -86 2 -145 -1 -175 -10z"/>
<path d="M10070 2036 c-110 -31 -194 -99 -238 -194 -20 -45 -25 -71 -25 -136
0 -91 14 -133 61 -188 45 -50 123 -81 336 -133 199 -48 278 -80 301 -125 23
-44 28 -90 15 -136 -26 -91 -137 -147 -291 -146 -170 1 -269 66 -300 197 -6
28 -13 56 -15 63 -2 8 -26 12 -72 12 -38 0 -71 -2 -74 -5 -11 -11 14 -141 36
-189 33 -68 70 -108 139 -149 87 -53 175 -71 316 -64 198 9 332 74 394 192 26
51 36 194 17 261 -17 58 -85 135 -147 164 -27 12 -113 38 -193 57 -235 56
-302 79 -333 111 -53 55 -48 148 10 213 48 53 116 73 228 67 146 -8 227 -65
256 -180 l11 -48 74 0 74 0 0 33 c0 43 -25 132 -46 165 -47 74 -129 128 -241
157 -69 18 -230 18 -293 1z"/>
<path d="M2540 1468 c0 -304 3 -563 6 -575 6 -21 12 -23 80 -23 l74 0 2 461 3
460 156 -458 157 -458 80 -3 79 -3 60 173 c33 95 104 306 159 468 l99 295 3
-467 2 -468 75 0 75 0 0 575 0 575 -114 0 -114 0 -143 -427 c-79 -236 -150
-447 -158 -470 -8 -24 -17 -43 -20 -43 -4 0 -79 211 -166 470 l-160 470 -117
0 -118 0 0 -552z"/>
<path d="M4180 1938 c-17 -46 -112 -297 -210 -558 -98 -261 -182 -483 -185
-492 -6 -16 1 -18 77 -18 l85 0 60 168 60 167 225 3 226 2 51 -146 c28 -80 54
-156 57 -170 6 -23 9 -24 96 -24 68 0 89 3 86 13 -3 6 -97 265 -209 575 l-203
562 -92 0 -92 0 -32 -82z m130 -129 c0 -6 34 -108 75 -227 41 -119 75 -220 75
-224 0 -5 -77 -8 -171 -8 -133 0 -170 3 -166 13 2 6 42 114 87 239 45 125 86
225 91 222 5 -3 9 -10 9 -15z"/>
<path d="M4970 1446 l0 -576 80 0 80 0 0 245 0 245 213 0 c116 0 228 -4 246
-10 48 -13 87 -54 100 -103 6 -23 15 -113 20 -199 5 -86 12 -161 16 -167 4 -7
46 -11 106 -11 106 0 120 8 79 45 -30 27 -39 69 -48 235 -10 181 -23 218 -87
259 l-42 26 49 44 c68 61 90 108 96 207 9 157 -47 254 -174 305 -57 23 -69 24
-396 27 l-338 3 0 -575z m660 411 c100 -53 120 -223 35 -303 -49 -46 -98 -54
-329 -54 l-206 0 0 190 0 190 228 0 c219 0 231 -1 272 -23z"/>
<path d="M5970 1950 l0 -70 195 0 195 0 0 -505 0 -505 80 0 80 0 0 505 0 505
195 0 195 0 0 70 0 70 -470 0 -470 0 0 -70z"/>
<path d="M1584 1775 l1 -58 64 -13 c145 -30 267 -126 334 -264 37 -74 66 -185
67 -247 l0 -33 61 0 62 0 -6 68 c-30 315 -254 570 -527 599 l-57 6 1 -58z"/>
<path d="M6902 1318 l3 -73 198 -3 197 -2 0 75 0 75 -200 0 -201 0 3 -72z"/>
</g>
</svg>
