<?xml version="1.0" encoding="UTF-8" standalone="no"?>
<svg
   version="1.0"
   width="1087.000000pt"
   height="306.000000pt"
   viewBox="0 0 1087.000000 306.000000"
   preserveAspectRatio="xMidYMid meet"
   id="svg11"
   sodipodi:docname="smart-ccs_dark.svg"
   inkscape:version="1.4 (86a8ad7, 2024-10-11)"
   xmlns:inkscape="http://www.inkscape.org/namespaces/inkscape"
   xmlns:sodipodi="http://sodipodi.sourceforge.net/DTD/sodipodi-0.dtd"
   xmlns="http://www.w3.org/2000/svg"
   xmlns:svg="http://www.w3.org/2000/svg">
  <defs
     id="defs11" />
  <sodipodi:namedview
     id="namedview11"
     pagecolor="#ffffff"
     bordercolor="#666666"
     borderopacity="1.0"
     inkscape:showpageshadow="2"
     inkscape:pageopacity="0.0"
     inkscape:pagecheckerboard="0"
     inkscape:deskcolor="#d1d1d1"
     inkscape:document-units="pt"
     inkscape:zoom="0.86209132"
     inkscape:cx="786.45961"
     inkscape:cy="330.01144"
     inkscape:window-width="1920"
     inkscape:window-height="991"
     inkscape:window-x="2391"
     inkscape:window-y="-9"
     inkscape:window-maximized="1"
     inkscape:current-layer="svg11" />
  <g
     id="g12"
     inkscape:export-filename="g12.png"
     inkscape:export-xdpi="600"
     inkscape:export-ydpi="600">
    <g
       transform="matrix(0.08112576,0,0,-0.07772285,-14.180238,278.01206)"
       fill="#000000"
       stroke="none"
       id="g11">
      <path
         d="m 1245,2854 c -11,-3 -49,-12 -85,-21 -380,-94 -690,-489 -782,-997 -29,-159 -31,-440 -4,-591 62,-347 216,-643 427,-825 96,-82 167,-125 279,-167 213,-80 428,-66 639,42 65,33 231,157 231,173 0,4 -18,25 -39,46 l -39,38 -69,-55 C 1689,405 1611,366 1480,335 1305,295 1099,345 931,469 656,673 471,1095 470,1523 c -1,739 484,1314 1015,1202 116,-25 256,-99 353,-189 l 43,-39 39,38 c 22,22 40,42 40,47 0,4 -35,37 -77,73 -86,72 -239,154 -338,180 -60,16 -262,29 -300,19 z"
         id="path1" />
      <path
         d="m 1214,2271 c -174,-50 -268,-169 -281,-356 -7,-97 14,-187 58,-257 64,-100 142,-144 407,-233 189,-63 250,-99 296,-169 37,-57 49,-129 36,-211 -13,-83 -37,-132 -86,-175 -71,-62 -115,-75 -249,-75 -138,0 -189,17 -259,83 -38,37 -96,141 -96,174 0,27 -15,29 -85,17 -73,-14 -73,-15 -50,-92 63,-207 230,-316 486,-317 170,0 316,53 396,145 134,152 135,452 3,584 -73,73 -122,98 -335,171 -183,63 -243,90 -290,131 -113,100 -109,323 9,412 56,44 125,60 229,55 155,-6 242,-64 289,-191 15,-43 25,-56 37,-53 9,3 36,10 61,16 25,6 51,13 57,15 10,3 7,21 -10,69 -68,187 -219,277 -461,275 -64,0 -123,-7 -162,-18 z"
         id="path2" />
      <path
         d="m 7830,2036 c -92,-26 -142,-56 -214,-128 -82,-84 -117,-147 -147,-268 -18,-72 -21,-103 -16,-220 8,-206 52,-333 150,-433 183,-185 517,-196 704,-24 82,76 141,185 157,290 l 7,47 h -78 -78 l -22,-73 c -56,-178 -191,-265 -370,-237 -86,14 -144,43 -193,96 -81,88 -114,190 -113,354 0,225 69,367 211,437 73,35 191,43 278,18 77,-22 153,-95 180,-172 l 19,-53 h 78 79 l -7,43 c -12,69 -55,149 -115,208 -64,64 -110,91 -197,113 -73,19 -247,20 -313,2 z"
         id="path3" />
      <path
         d="m 8980,2036 c -94,-27 -142,-56 -214,-128 -116,-118 -166,-252 -166,-449 0,-357 153,-570 440,-611 286,-42 527,130 575,410 l 7,42 h -79 -78 l -23,-73 c -57,-179 -190,-265 -369,-237 -86,14 -144,43 -193,96 -81,88 -114,190 -113,354 0,225 69,367 211,437 73,35 191,43 278,18 77,-22 153,-95 180,-172 l 19,-53 h 77 c 90,0 88,-3 58,91 -36,114 -132,215 -247,260 -47,18 -82,23 -188,25 -86,2 -145,-1 -175,-10 z"
         id="path4" />
      <path
         d="m 10070,2036 c -110,-31 -194,-99 -238,-194 -20,-45 -25,-71 -25,-136 0,-91 14,-133 61,-188 45,-50 123,-81 336,-133 199,-48 278,-80 301,-125 23,-44 28,-90 15,-136 -26,-91 -137,-147 -291,-146 -170,1 -269,66 -300,197 -6,28 -13,56 -15,63 -2,8 -26,12 -72,12 -38,0 -71,-2 -74,-5 -11,-11 14,-141 36,-189 33,-68 70,-108 139,-149 87,-53 175,-71 316,-64 198,9 332,74 394,192 26,51 36,194 17,261 -17,58 -85,135 -147,164 -27,12 -113,38 -193,57 -235,56 -302,79 -333,111 -53,55 -48,148 10,213 48,53 116,73 228,67 146,-8 227,-65 256,-180 l 11,-48 h 74 74 v 33 c 0,43 -25,132 -46,165 -47,74 -129,128 -241,157 -69,18 -230,18 -293,1 z"
         id="path5" />
      <path
         d="m 2540,1468 c 0,-304 3,-563 6,-575 6,-21 12,-23 80,-23 h 74 l 2,461 3,460 156,-458 157,-458 80,-3 79,-3 60,173 c 33,95 104,306 159,468 l 99,295 3,-467 2,-468 h 75 75 v 575 575 h -114 -114 l -143,-427 c -79,-236 -150,-447 -158,-470 -8,-24 -17,-43 -20,-43 -4,0 -79,211 -166,470 l -160,470 h -117 -118 z"
         id="path6" />
      <path
         d="m 4180,1938 c -17,-46 -112,-297 -210,-558 -98,-261 -182,-483 -185,-492 -6,-16 1,-18 77,-18 h 85 l 60,168 60,167 225,3 226,2 51,-146 c 28,-80 54,-156 57,-170 6,-23 9,-24 96,-24 68,0 89,3 86,13 -3,6 -97,265 -209,575 l -203,562 h -92 -92 z m 130,-129 c 0,-6 34,-108 75,-227 41,-119 75,-220 75,-224 0,-5 -77,-8 -171,-8 -133,0 -170,3 -166,13 2,6 42,114 87,239 45,125 86,225 91,222 5,-3 9,-10 9,-15 z"
         id="path7" />
      <path
         d="M 4970,1446 V 870 h 80 80 v 245 245 h 213 c 116,0 228,-4 246,-10 48,-13 87,-54 100,-103 6,-23 15,-113 20,-199 5,-86 12,-161 16,-167 4,-7 46,-11 106,-11 106,0 120,8 79,45 -30,27 -39,69 -48,235 -10,181 -23,218 -87,259 l -42,26 49,44 c 68,61 90,108 96,207 9,157 -47,254 -174,305 -57,23 -69,24 -396,27 l -338,3 z m 660,411 c 100,-53 120,-223 35,-303 -49,-46 -98,-54 -329,-54 h -206 v 190 190 h 228 c 219,0 231,-1 272,-23 z"
         id="path8" />
      <path
         d="m 5970,1950 v -70 h 195 195 V 1375 870 h 80 80 v 505 505 h 195 195 v 70 70 h -470 -470 z"
         id="path9" />
      <path
         d="m 1584,1775 1,-58 64,-13 c 145,-30 267,-126 334,-264 37,-74 66,-185 67,-247 v -33 h 61 62 l -6,68 c -30,315 -254,570 -527,599 l -57,6 z"
         id="path10" />
      <path
         d="m 6902,1318 3,-73 198,-3 197,-2 v 75 75 h -200 -201 z"
         id="path11" />
    </g>
    <g
       transform="matrix(0.04233991,0,0,-0.03792109,858.98542,255.55989)"
       fill="#000000"
       stroke="none"
       id="g9">
      <path
         d="M 1160,5110 C 927,5077 677,4953 505,4785 273,4559 150,4267 150,3945 c 0,-561 387,-1034 941,-1150 40,-9 130,-18 199,-21 l 125,-6 170,-169 c 94,-92 183,-173 198,-179 42,-15 78,-12 114,10 59,35 63,50 89,317 l 25,248 32,24 c 18,13 68,61 113,105 368,369 444,948 185,1403 -134,234 -357,424 -611,520 -154,58 -405,86 -570,63 z m 306,-151 c 415,-57 762,-378 855,-789 33,-147 27,-357 -16,-504 -59,-204 -171,-373 -340,-516 -56,-47 -87,-80 -94,-102 -8,-25 -51,-418 -51,-464 0,-5 -71,61 -157,147 -87,86 -169,164 -183,173 -18,12 -48,16 -120,16 -306,0 -562,103 -765,307 -182,183 -281,409 -292,665 -9,199 26,361 112,525 204,387 622,602 1051,542 z"
         id="path1-4" />
      <path
         d="m 1034,4558 c -88,-87 -101,-122 -61,-162 45,-45 72,-36 161,53 66,67 79,85 79,112 0,39 -32,69 -75,69 -24,0 -46,-15 -104,-72 z"
         id="path2-8" />
      <path
         d="m 1735,4481 c -108,-27 -178,-116 -178,-226 0,-210 245,-313 393,-165 126,126 74,335 -98,386 -49,15 -71,16 -117,5 z m 104,-167 c 83,-70 -16,-191 -102,-124 -33,26 -41,63 -22,101 28,53 78,62 124,23 z"
         id="path3-8" />
      <path
         d="m 680,4163 c -193,-101 -161,-376 50,-433 162,-44 323,117 280,280 -27,104 -105,169 -213,177 -54,4 -69,1 -117,-24 z m 161,-152 c 17,-17 29,-40 29,-55 0,-34 -38,-75 -77,-82 -27,-5 -37,-1 -63,24 -32,32 -37,60 -18,95 29,55 84,63 129,18 z"
         id="path4-2" />
      <path
         d="m 1211,4094 c -37,-47 -28,-70 57,-156 65,-65 84,-78 110,-78 42,0 72,31 72,73 0,29 -12,45 -79,110 -90,88 -123,98 -160,51 z"
         id="path5-4" />
      <path
         d="m 1886,3647 c -42,-40 -78,-85 -82,-101 -10,-41 22,-80 70,-84 33,-3 43,3 102,60 36,35 72,75 80,90 27,52 -8,108 -68,108 -22,0 -46,-17 -102,-73 z"
         id="path6-5" />
      <path
         d="m 1167,3442 c -86,-87 -97,-119 -54,-160 43,-41 73,-30 159,56 87,87 98,120 55,160 -44,41 -74,30 -160,-56 z"
         id="path7-5" />
      <path
         d="m 3443,4870 c -45,-27 -53,-43 -128,-249 -36,-102 -68,-188 -71,-192 -2,-4 -37,3 -76,17 -89,30 -126,30 -169,1 -33,-22 -46,-55 -323,-812 -326,-889 -321,-869 -255,-929 20,-18 41,-35 47,-37 8,-3 0,-35 -23,-98 -19,-51 -35,-110 -35,-130 0,-40 29,-94 58,-110 53,-28 522,-192 553,-193 47,-1 95,25 114,62 8,16 29,66 45,112 l 30,83 h 59 c 90,0 103,17 181,235 l 65,180 h 55 c 166,1 344,96 432,231 54,84 58,65 58,-292 0,-290 1,-308 20,-331 11,-14 28,-28 38,-30 30,-8 81,18 87,44 3,13 5,170 3,349 l -3,326 -28,42 c -16,23 -43,51 -61,62 -32,19 -33,20 -25,67 4,26 5,77 2,115 l -6,67 h 89 c 138,0 209,-29 246,-101 27,-52 398,-2135 398,-2233 0,-140 -60,-283 -161,-386 -64,-65 -121,-101 -218,-139 l -66,-26 -1022,-3 -1023,-3 v 306 305 l 818,2 817,3 63,34 c 71,39 110,78 150,154 l 27,52 3,357 c 3,348 2,358 -18,378 -27,27 -81,27 -106,-1 -18,-20 -19,-45 -24,-363 -5,-342 -5,-343 -29,-378 -46,-67 -82,-83 -198,-86 l -103,-4 v 149 c 0,129 -3,152 -20,180 -40,66 8,63 -917,63 -814,0 -839,-1 -870,-20 -59,-36 -65,-60 -61,-266 l 3,-184 33,-32 c 32,-33 33,-33 155,-38 l 122,-5 3,-302 2,-303 h -353 c -473,0 -447,17 -447,-285 0,-209 4,-225 59,-262 34,-23 38,-23 348,-23 h 314 l 24,25 c 32,31 32,69 0,100 l -24,25 H 1815 1530 V 285 420 H 2795 4060 V 285 150 h -830 -831 l -24,-25 c -32,-31 -32,-69 0,-100 l 24,-25 h 858 c 833,0 859,1 890,20 56,34 63,61 63,238 v 159 l 88,6 c 109,8 187,28 278,73 238,116 394,367 394,632 0,66 -43,324 -191,1156 -210,1179 -203,1152 -290,1231 -23,21 -67,49 -98,63 -51,24 -70,26 -213,30 l -157,4 -27,40 c -15,22 -50,59 -77,83 l -48,44 45,126 c 25,69 46,142 46,161 0,72 -42,113 -149,145 -23,7 -45,18 -48,24 -2,7 28,101 68,209 109,302 110,302 -230,417 -100,34 -116,35 -158,9 z m 181,-176 c 55,-20 105,-40 110,-44 10,-10 -115,-360 -129,-360 -23,0 -215,76 -215,85 0,13 124,355 129,355 2,0 49,-16 105,-36 z m -175,-510 c 190,-70 349,-129 352,-133 4,-3 -10,-50 -30,-104 -34,-94 -37,-98 -61,-92 -14,3 -65,8 -115,12 -146,9 -276,-36 -385,-134 -271,-243 -217,-691 104,-859 40,-21 54,-33 50,-44 -3,-8 -26,-71 -51,-140 -25,-69 -49,-129 -53,-134 -6,-6 -698,235 -719,251 -4,2 231,655 496,1381 25,67 50,122 56,122 5,0 166,-57 356,-126 z m 276,-499 c 291,-139 290,-551 -1,-687 -189,-88 -407,-11 -502,177 -85,169 -24,381 138,485 75,48 123,60 220,57 69,-3 96,-9 145,-32 z M 2905,2514 c 88,-31 161,-59 163,-60 5,-3 -50,-154 -57,-158 -4,-3 -373,127 -442,156 -4,2 6,40 23,85 l 29,82 62,-23 c 34,-13 134,-50 222,-82 z m 675,-1064 v -120 h -785 -785 v 120 120 h 785 785 z"
         id="path8-1" />
      <path
         d="m 3510,3561 c -108,-35 -170,-115 -170,-221 0,-202 240,-300 383,-157 136,136 51,365 -141,382 -26,3 -58,1 -72,-4 z m 113,-172 c 31,-39 21,-91 -24,-115 -80,-41 -147,58 -83,123 20,20 31,24 57,19 18,-3 40,-16 50,-27 z"
         id="path9-7" />
    </g>
  </g>
</svg>
