<?xml version="1.0" standalone="no"?>
<!DOCTYPE svg PUBLIC "-//W3C//DTD SVG 20010904//EN"
 "http://www.w3.org/TR/2001/REC-SVG-20010904/DTD/svg10.dtd">
<svg version="1.0" xmlns="http://www.w3.org/2000/svg"
 width="8790.000000pt" height="1720.000000pt" viewBox="0 0 8790.000000 1720.000000"
 preserveAspectRatio="xMidYMid meet">

<g transform="translate(0.000000,1720.000000) scale(0.100000,-0.100000)"
fill="#000000" stroke="none">
<path d="M2 13063 c0 -2313 5 -4045 9 -3928 23 600 79 1119 169 1565 422 2100
1449 3927 2875 5115 689 574 1464 984 2250 1190 237 63 729 177 795 185 36 4
-1322 8 -3017 9 l-3083 1 2 -4137z"/>
<path d="M6800 17189 c527 -26 1040 -83 1264 -140 304 -77 730 -249 1151 -464
632 -324 1124 -664 1544 -1070 75 -73 92 -95 87 -112 -10 -32 -164 -196 -349
-370 -95 -89 -175 -163 -179 -163 -5 0 -79 62 -165 138 -454 397 -786 627
-1253 869 -534 277 -1071 453 -1582 518 -317 40 -777 45 -1063 11 -1364 -162
-2614 -905 -3607 -2145 -1010 -1262 -1648 -2907 -1823 -4706 -34 -349 -40
-500 -40 -980 1 -510 9 -677 56 -1078 189 -1638 797 -3220 1699 -4422 466
-621 1011 -1137 1580 -1495 1084 -683 2323 -947 3425 -729 438 86 895 239
1247 415 375 187 628 358 1328 897 l135 104 100 -91 c239 -219 425 -417 425
-455 0 -43 -272 -272 -606 -511 -396 -283 -757 -512 -982 -621 -678 -330
-1415 -532 -2107 -578 -72 -4 17904 -9 40343 -10 l40472 -1 -1 2003 c-1 1213
-5 1969 -10 1918 -33 -308 -154 -639 -336 -916 -254 -386 -606 -680 -1046
-874 -318 -141 -586 -203 -987 -230 -85 -6 -188 -14 -227 -17 l-73 -6 0 -356
c-1 -660 -21 -760 -168 -859 -87 -58 -142 -72 -338 -84 -104 -6 -1275 -12
-3024 -16 l-2855 -5 -67 61 c-143 131 -143 231 -1 361 l66 60 2928 0 2929 0 0
425 0 425 -4465 0 -4465 0 0 -425 0 -425 1008 0 1007 0 67 -64 c79 -76 102
-115 102 -176 0 -61 -23 -100 -102 -176 l-67 -64 -860 1 c-960 0 -1301 9
-1383 34 -29 9 -87 40 -130 68 -67 46 -81 61 -109 117 -46 91 -53 167 -60 625
-6 405 3 597 31 690 50 163 171 229 471 254 74 7 545 11 1217 11 603 0 1099 3
1101 7 4 8 -12 1906 -16 1909 -1 1 -153 7 -337 13 -374 13 -485 23 -540 50
-21 10 -78 54 -128 97 l-89 79 -7 490 c-9 607 0 716 69 815 50 72 154 132 260
149 145 24 1193 33 3355 28 1478 -3 2219 -8 2335 -16 282 -19 387 -43 442
-103 30 -32 91 -135 105 -178 7 -23 13 -186 17 -485 l6 -450 175 3 c499 8 646
38 782 161 58 52 133 148 153 194 25 59 35 216 45 702 29 1392 33 1456 73
1529 35 64 99 91 212 91 73 0 98 -4 130 -22 48 -25 80 -58 95 -98 22 -56 27
-426 19 -1345 l-9 -915 -46 -80 c-132 -229 -242 -359 -381 -456 -41 -28 -152
-90 -245 -136 l-170 -85 -2652 -8 c-1458 -5 -2756 -9 -2883 -10 l-233 0 0
-966 0 -966 1522 6 c838 3 2461 9 3608 12 l2085 6 168 60 c329 115 498 200
682 337 394 297 650 726 706 1185 15 123 9 211 -31 446 -230 1372 -1201 6219
-1345 6715 -40 136 -184 259 -370 314 -127 38 -258 52 -549 58 l-279 6 7 -74
c17 -189 18 -414 2 -517 -10 -67 -12 -110 -6 -126 5 -15 36 -41 77 -64 93 -55
177 -134 264 -248 l73 -95 0 -1067 c1 -972 0 -1069 -15 -1090 -62 -87 -244
-141 -328 -97 -44 22 -109 83 -127 117 -32 63 -36 132 -44 973 -10 975 -16
1072 -73 1083 -24 5 -55 -25 -128 -120 -167 -219 -378 -388 -643 -518 -301
-146 -624 -220 -971 -220 l-110 0 -69 -173 c-330 -821 -391 -951 -492 -1050
-67 -65 -122 -79 -332 -86 l-183 -6 -93 -225 c-157 -382 -184 -430 -272 -491
-62 -42 -163 -78 -242 -85 -61 -6 -86 -2 -223 35 -459 125 -1634 500 -1775
567 -69 32 -127 98 -172 192 -34 71 -37 84 -36 162 1 91 23 166 153 512 28 75
51 152 50 170 0 30 -7 38 -70 78 -105 67 -206 164 -219 208 -22 80 -5 186 67
407 99 305 248 683 908 2295 945 2309 1039 2528 1133 2625 20 21 66 52 102 69
56 26 79 31 165 34 111 4 171 -7 424 -78 79 -22 162 -40 183 -40 47 0 31 -32
228 456 327 808 353 854 531 946 82 42 87 43 174 42 103 -1 126 -7 525 -128
513 -157 683 -228 787 -331 48 -48 65 -73 77 -115 42 -142 12 -258 -214 -825
-133 -335 -223 -578 -235 -633 -6 -31 -5 -33 47 -57 29 -13 107 -40 173 -60
328 -98 467 -226 467 -430 0 -90 -52 -251 -203 -633 -60 -152 -109 -279 -109
-283 0 -4 48 -47 108 -95 144 -118 291 -262 363 -355 l58 -77 113 -5 c62 -3
286 -11 498 -17 225 -6 420 -16 470 -24 287 -47 670 -287 774 -485 127 -242
217 -631 680 -2956 564 -2832 773 -3932 809 -4255 2 -19 5 2889 5 6463 l2
6497 -40632 -1 c-22348 -1 -40559 -6 -40468 -10z m68590 -475 c758 -66 1314
-234 1882 -571 1108 -655 1781 -1669 1879 -2832 16 -193 6 -553 -20 -731 -122
-831 -526 -1577 -1156 -2139 -181 -162 -357 -307 -442 -365 -66 -45 -73 -52
-78 -90 -3 -23 -35 -302 -70 -621 -95 -846 -113 -933 -205 -1039 -43 -48 -198
-124 -283 -138 -82 -13 -184 -1 -249 31 -92 44 -432 327 -950 788 -180 160
-331 294 -336 297 -5 3 -115 10 -243 16 -525 23 -760 46 -1003 97 -749 156
-1427 484 -1971 954 -136 118 -371 360 -478 494 -629 785 -887 1757 -726 2735
139 842 606 1607 1343 2198 108 87 361 257 501 337 513 294 1132 508 1664 575
246 31 612 33 941 4z m-68130 -3204 c1444 -76 2345 -661 2768 -1800 88 -238
115 -371 81 -405 -8 -8 -84 -32 -169 -54 -325 -82 -658 -161 -683 -161 -61 0
-120 92 -218 340 -311 790 -843 1155 -1794 1230 -169 13 -601 13 -735 0 -488
-49 -841 -201 -1126 -485 -124 -124 -209 -243 -284 -399 -352 -741 -166 -1710
415 -2161 161 -124 297 -204 535 -312 274 -124 584 -237 1405 -513 854 -287
1083 -371 1370 -501 364 -167 638 -358 909 -634 331 -337 542 -831 611 -1430
19 -166 22 -518 6 -680 -75 -733 -340 -1327 -777 -1745 -401 -384 -1012 -653
-1739 -769 -445 -70 -1000 -80 -1470 -26 -425 49 -856 166 -1189 324 -645 304
-1116 808 -1379 1476 -85 214 -158 464 -164 560 -6 100 11 131 89 168 94 45
472 114 673 124 181 8 227 -21 238 -154 8 -93 54 -220 146 -398 138 -270 324
-544 467 -690 133 -136 341 -288 510 -373 283 -142 663 -202 1289 -202 625 0
978 57 1254 201 270 141 568 396 706 604 189 283 305 696 322 1140 17 472
-109 855 -396 1199 -222 267 -576 475 -1211 711 -85 32 -414 143 -730 247
-964 319 -1365 471 -1740 664 -419 215 -713 470 -944 819 -349 526 -477 1212
-365 1955 67 441 226 830 470 1151 364 479 1010 829 1721 933 333 49 742 66
1128 46z m44880 -1570 c308 -29 470 -58 689 -121 490 -142 785 -322 1186 -724
243 -242 391 -440 529 -706 124 -240 185 -425 234 -711 l29 -168 -531 0 -531
0 -75 202 c-89 240 -141 347 -237 488 -254 373 -663 670 -1063 774 -626 162
-1445 90 -1940 -171 -683 -360 -1092 -959 -1255 -1838 -53 -288 -66 -441 -72
-866 -6 -416 2 -590 37 -839 87 -624 295 -1075 690 -1502 322 -347 725 -551
1270 -642 681 -114 1271 -1 1739 332 113 80 298 255 388 366 145 181 287 429
376 656 25 63 82 233 128 378 l82 262 528 0 529 0 -5 -27 c-3 -16 -19 -113
-36 -218 -49 -303 -111 -515 -230 -783 -239 -541 -648 -1044 -1099 -1354 -362
-249 -770 -419 -1234 -513 -286 -57 -420 -70 -771 -70 -331 0 -443 10 -725 61
-723 132 -1397 482 -1851 963 -511 539 -785 1199 -888 2136 -57 511 -74 1178
-40 1494 30 282 172 810 302 1127 180 438 464 825 889 1211 399 362 665 521
1128 674 252 83 427 115 755 139 158 11 929 4 1075 -10z m15055 0 c299 -27
529 -74 780 -160 469 -160 831 -379 1106 -668 213 -223 311 -405 418 -779 71
-246 92 -366 98 -575 l6 -188 -501 0 c-468 0 -501 1 -506 18 -3 9 -21 85 -41
167 -91 387 -196 596 -405 806 -264 268 -633 417 -1170 475 -187 20 -615 23
-770 5 -412 -47 -700 -171 -925 -396 -147 -147 -252 -322 -312 -520 -25 -83
-27 -104 -27 -270 0 -172 1 -184 28 -265 35 -105 66 -167 121 -245 204 -287
531 -405 2224 -800 628 -147 1130 -285 1368 -377 366 -141 789 -541 978 -923
107 -217 130 -357 130 -775 -1 -377 -36 -662 -111 -908 -60 -197 -205 -416
-409 -616 -466 -458 -1186 -717 -2190 -787 -223 -16 -755 -16 -920 -1 -621 58
-1044 204 -1535 528 -167 110 -268 192 -385 316 -142 150 -295 374 -374 551
-113 251 -251 856 -251 1100 0 103 9 112 127 123 145 14 627 11 726 -5 147
-22 140 -13 213 -305 34 -137 74 -286 89 -330 133 -394 406 -700 785 -880 249
-117 525 -185 875 -215 153 -14 537 -14 680 -1 884 81 1465 426 1611 957 73
264 48 528 -72 782 -24 52 -63 119 -86 148 -104 136 -339 265 -714 393 -304
104 -617 187 -1484 395 -1300 311 -1807 517 -2091 849 -274 320 -361 571 -376
1076 -10 376 21 627 103 832 205 517 572 913 1094 1182 230 118 463 203 676
245 92 18 340 45 504 55 124 7 796 -3 915 -14z m-7560 0 c723 -22 952 -65
1342 -250 311 -148 556 -322 809 -575 157 -157 239 -256 353 -426 150 -222
230 -396 339 -729 94 -287 101 -354 42 -403 -50 -42 -125 -48 -583 -45 l-419
3 -69 185 c-112 300 -156 388 -288 565 -220 297 -563 555 -888 668 -488 170
-1248 166 -1783 -9 -143 -47 -360 -155 -505 -252 -618 -411 -972 -1068 -1079
-2002 -63 -546 -43 -1214 49 -1650 93 -438 264 -802 528 -1123 357 -434 730
-652 1312 -766 227 -44 348 -56 585 -55 241 0 380 16 566 64 509 132 914 433
1206 896 67 108 161 292 208 409 18 44 76 211 130 370 l97 290 532 3 533 2 -6
-27 c-3 -16 -20 -104 -37 -198 -133 -747 -434 -1329 -940 -1821 -800 -776
-1987 -1084 -3219 -834 -1396 283 -2271 1173 -2584 2631 -124 577 -159 1329
-90 1939 99 886 411 1557 1008 2168 382 391 716 624 1109 776 159 62 425 142
533 160 239 41 640 53 1209 36z m-43270 -177 c11 -29 849 -2387 1067 -3003
712 -2013 1098 -3055 1135 -3067 7 -3 31 35 57 89 49 102 167 435 1156 3263
369 1056 735 2102 813 2325 l142 405 770 0 770 0 3 -3722 2 -3723 -510 0 -510
0 0 393 c0 571 -20 4176 -28 4972 l-7 680 -259 -740 c-271 -777 -753 -2142
-1124 -3190 -289 -816 -757 -2114 -765 -2121 -4 -4 -1069 34 -1073 39 -6 6
-1089 3038 -1877 5255 l-232 653 -5 -173 c-3 -95 -7 -400 -8 -678 -2 -278 -7
-1072 -12 -1765 -5 -693 -9 -1629 -10 -2081 0 -451 -3 -916 -7 -1032 l-6 -212
-396 0 c-527 0 -572 8 -619 102 -22 44 -24 63 -32 347 -17 550 -30 2548 -30
4782 0 1213 3 2209 7 2212 3 4 361 7 794 7 740 0 787 -1 794 -17z m10963 -10
c5 -16 153 -406 327 -868 174 -462 555 -1472 847 -2245 937 -2483 1432 -3792
1544 -4077 75 -193 75 -193 -31 -215 -86 -19 -963 -18 -1022 0 -77 23 -85 37
-172 297 -78 235 -134 393 -497 1393 l-179 494 -520 -6 c-286 -3 -970 -11
-1520 -17 -550 -6 -1003 -15 -1008 -18 -6 -6 -387 -1020 -748 -1988 l-64 -173
-460 0 c-596 1 -655 8 -642 85 8 47 2846 7266 2888 7348 9 16 49 17 628 17
l619 0 10 -27z m5407 17 c1447 -13 2417 -27 2661 -40 438 -23 626 -68 959
-229 221 -107 381 -218 521 -363 232 -238 367 -516 436 -894 21 -117 23 -157
23 -439 -1 -243 -4 -336 -18 -430 -57 -382 -153 -603 -370 -853 -81 -92 -194
-197 -445 -412 -78 -68 -141 -124 -140 -125 2 -1 66 -40 143 -85 309 -183 424
-284 508 -447 124 -242 167 -511 222 -1388 40 -632 74 -926 130 -1120 45 -153
77 -207 201 -335 61 -63 117 -126 124 -138 19 -39 4 -71 -43 -92 -77 -34 -165
-42 -519 -47 -528 -8 -796 17 -825 77 -26 55 -66 450 -103 1015 -57 857 -108
1278 -174 1441 -125 306 -412 539 -718 583 -245 35 -879 51 -2055 51 l-973 0
0 -1585 0 -1585 -540 0 -540 0 0 3725 0 3725 193 0 c105 0 710 -4 1342 -10z
m11583 -447 l2 -453 -1320 0 -1320 0 0 -3270 0 -3270 -540 0 -540 0 0 3270 0
3270 -1320 0 -1320 0 0 455 0 455 3178 -2 3177 -3 3 -452z m-35723 -788 c129
-14 275 -32 323 -41 1532 -266 2803 -1525 3216 -3185 73 -295 91 -414 151
-1036 l7 -63 -415 0 -414 0 -6 188 c-15 535 -247 1288 -556 1810 -142 241
-300 442 -505 647 -349 347 -755 598 -1230 761 -158 54 -344 100 -628 155
l-217 41 -5 52 c-3 28 -7 196 -10 374 l-4 322 28 0 c16 0 135 -11 265 -25z
m38355 -3323 l0 -488 -452 4 c-777 6 -2207 27 -2212 32 -6 7 -46 922 -40 932
3 4 612 8 1355 8 l1349 0 0 -488z"/>
<path d="M74890 16263 c-733 -27 -1438 -254 -2034 -657 -615 -414 -1081 -1019
-1294 -1677 -84 -260 -120 -480 -129 -795 -25 -880 269 -1616 897 -2244 290
-290 602 -512 975 -695 366 -180 725 -290 1155 -354 210 -31 350 -41 690 -51
358 -10 390 -15 476 -80 75 -57 283 -234 523 -444 408 -360 617 -536 634 -536
4 0 7 21 7 48 0 98 115 1062 157 1312 8 52 23 110 32 128 24 47 130 151 250
245 222 174 351 285 481 416 352 354 591 725 753 1172 186 515 217 1209 77
1736 -210 786 -778 1503 -1550 1955 -441 259 -938 426 -1461 492 -110 14 -508
39 -549 34 -8 -1 -49 -3 -90 -5z m-409 -1085 c60 -20 116 -65 138 -111 23 -48
28 -125 10 -160 -29 -55 -99 -133 -225 -248 -218 -199 -326 -273 -419 -286
-61 -8 -138 30 -204 103 -81 89 -78 150 16 274 82 110 375 364 477 415 56 28
147 34 207 13z m2391 -464 c264 -71 444 -205 544 -408 99 -202 99 -391 -2
-595 -79 -160 -250 -313 -424 -380 -162 -63 -336 -77 -507 -42 -241 50 -448
203 -549 406 -58 118 -77 209 -71 345 13 306 209 547 532 656 177 59 305 64
477 18z m-3577 -934 c179 -33 318 -103 436 -220 93 -92 141 -168 186 -291 24
-66 27 -89 27 -204 1 -116 -2 -138 -26 -203 -37 -103 -81 -172 -167 -264 -236
-252 -585 -334 -918 -213 -254 91 -436 280 -500 516 -27 102 -23 263 10 364
65 200 198 341 422 451 150 73 202 85 350 79 66 -2 147 -9 180 -15z m1585
-213 c102 -42 258 -162 458 -352 120 -114 147 -160 140 -240 -6 -77 -48 -139
-118 -179 -46 -26 -65 -30 -125 -31 -108 0 -165 36 -415 260 -232 209 -288
303 -238 400 27 51 96 122 140 144 54 27 89 26 158 -2z m2622 -1271 c123 -52
179 -181 127 -296 -37 -82 -391 -410 -509 -472 -36 -18 -60 -23 -121 -23 -66
1 -86 6 -144 34 -52 26 -73 43 -96 79 -71 112 -52 160 130 343 163 163 313
288 395 330 54 27 68 30 121 25 33 -2 77 -12 97 -20z m-2514 -638 c187 -115
188 -219 4 -410 -112 -117 -275 -258 -369 -319 -136 -88 -224 -86 -331 7 -63
55 -82 89 -82 144 0 81 69 174 257 345 143 130 262 218 330 246 61 25 139 19
191 -13z"/>
<path d="M76542 14244 c-126 -63 -194 -218 -143 -329 23 -51 98 -120 159 -147
67 -30 171 -30 237 0 147 67 206 215 135 338 -77 136 -261 201 -388 138z"/>
<path d="M73002 13300 c-128 -65 -195 -215 -143 -319 24 -47 133 -149 181
-169 142 -59 390 101 390 252 0 116 -161 255 -305 264 -52 3 -69 -1 -123 -28z"/>
<path d="M26658 10487 c-92 -139 -322 -695 -688 -1662 -116 -308 -277 -731
-357 -940 -132 -346 -143 -380 -128 -391 62 -46 344 -57 1245 -51 681 5 901
13 992 32 27 6 29 9 22 38 -10 47 -178 527 -469 1342 -306 857 -498 1408 -524
1510 -22 84 -31 103 -59 128 -19 17 -20 17 -34 -6z"/>
<path d="M32280 9640 l0 -1230 1038 0 c570 0 1152 5 1292 10 782 31 1057 108
1320 371 315 313 414 835 249 1306 -106 301 -294 515 -572 649 -240 115 -378
123 -2149 124 l-1178 0 0 -1230z"/>
<path d="M82762 15473 c-54 -105 -394 -944 -423 -1041 -7 -26 -9 -46 -3 -52
33 -32 650 -248 721 -253 37 -2 39 -1 72 63 106 198 383 903 406 1031 7 35 6
37 -37 54 -125 51 -299 108 -700 231 -12 4 -23 -6 -36 -33z"/>
<path d="M81252 14153 c-27 -38 -90 -166 -145 -293 -94 -220 -948 -2327 -1386
-3425 -369 -923 -396 -995 -379 -1006 66 -43 2449 -789 2518 -789 15 0 105
203 278 632 l101 248 -25 29 c-14 17 -81 58 -157 97 -73 37 -161 85 -197 108
-425 264 -709 696 -771 1171 -15 116 -6 394 16 495 47 211 143 431 263 600
221 312 598 574 984 685 306 89 563 101 1027 49 155 -18 153 -18 202 78 52
102 174 419 193 500 5 23 2 30 -22 42 -81 42 -2421 806 -2468 806 -7 0 -21
-12 -32 -27z"/>
<path d="M82720 12304 c-265 -33 -536 -163 -749 -360 -153 -142 -285 -362
-337 -559 -35 -133 -43 -320 -20 -451 82 -476 497 -871 1026 -979 156 -32 281
-39 425 -25 613 61 1086 453 1191 989 22 109 20 314 -4 426 -34 159 -115 334
-212 460 -102 132 -288 284 -445 362 -95 48 -243 100 -335 118 -83 16 -457 29
-540 19z m381 -490 c307 -58 547 -271 615 -544 25 -99 15 -273 -20 -365 -39
-102 -97 -184 -192 -274 -66 -63 -104 -89 -186 -129 -132 -65 -195 -82 -343
-88 -156 -8 -274 15 -407 78 -263 126 -418 357 -418 628 0 323 220 583 585
691 78 23 253 25 366 3z"/>
<path d="M82832 11343 c-47 -23 -126 -113 -140 -160 -35 -117 22 -232 140
-283 129 -55 310 16 362 142 63 151 -81 319 -272 318 -32 0 -71 -8 -90 -17z"/>
<path d="M79530 8633 c-78 -198 -111 -305 -98 -318 17 -17 876 -296 1341 -435
177 -53 210 -61 221 -49 25 27 170 378 191 461 l7 27 -509 166 c-279 92 -634
210 -788 261 -154 52 -280 94 -281 94 -1 0 -39 -93 -84 -207z"/>
<path d="M2 4078 l-2 -4078 3263 1 c1849 1 3210 5 3142 10 -743 52 -1527 274
-2255 639 -654 328 -1389 917 -1946 1560 -962 1112 -1668 2608 -2023 4285 -98
462 -147 887 -170 1460 -4 110 -9 -1635 -9 -3877z"/>
<path d="M77460 5145 l0 -375 2770 0 2770 0 0 375 0 375 -2770 0 -2770 0 0
-375z"/>
</g>
</svg>
