<?xml version="1.0" standalone="no"?>
<!DOCTYPE svg PUBLIC "-//W3C//DTD SVG 20010904//EN"
 "http://www.w3.org/TR/2001/REC-SVG-20010904/DTD/svg10.dtd">
<svg version="1.0" xmlns="http://www.w3.org/2000/svg"
 width="1087.000000pt" height="306.000000pt" viewBox="0 0 1087.000000 306.000000"
 preserveAspectRatio="xMidYMid meet">

<g transform="translate(0.000000,306.000000) scale(0.100000,-0.100000)"
fill="#000000" stroke="none">
<path d="M0 1530 l0 -1530 5435 0 5435 0 0 1530 0 1530 -5435 0 -5435 0 0
-1530z m1488 1314 c158 -32 304 -108 423 -219 l46 -43 -41 -41 -42 -41 -63 54
c-88 74 -155 113 -258 149 -80 28 -99 31 -208 31 -102 0 -132 -4 -198 -26
-259 -86 -488 -341 -596 -664 -68 -207 -85 -329 -78 -572 4 -151 10 -207 30
-292 74 -310 222 -560 422 -711 65 -49 195 -113 265 -130 30 -8 104 -14 165
-13 93 0 122 5 190 28 96 33 194 89 262 150 28 25 53 46 56 46 2 0 23 -18 45
-40 l41 -39 -58 -53 c-81 -73 -200 -142 -312 -179 -87 -29 -105 -32 -229 -33
-113 0 -147 4 -210 23 -403 123 -694 515 -776 1046 -29 193 -14 490 37 687
152 598 621 978 1087 882z m18 -563 c100 -19 166 -52 225 -110 57 -57 106
-143 111 -195 3 -28 1 -30 -65 -47 -63 -16 -69 -16 -74 -1 -35 107 -107 187
-194 215 -74 24 -203 23 -273 -4 -129 -48 -191 -203 -140 -353 33 -96 98 -138
348 -223 198 -67 265 -102 337 -174 46 -46 60 -69 78 -127 20 -61 23 -86 19
-179 -6 -134 -29 -201 -98 -276 -90 -99 -218 -147 -390 -147 -208 1 -347 63
-431 192 -41 64 -85 186 -72 198 9 8 133 33 138 28 1 -2 10 -26 19 -54 22 -67
66 -135 107 -167 59 -44 109 -59 211 -64 83 -5 108 -2 168 17 123 40 189 128
198 265 5 87 -9 141 -51 197 -47 62 -119 100 -286 154 -80 25 -179 61 -218 79
-90 42 -173 118 -210 194 -26 52 -28 64 -28 186 0 123 1 133 29 190 51 102
138 170 261 200 61 15 214 18 281 6z m6629 -245 c162 -43 292 -177 312 -321
l6 -45 -77 0 c-64 0 -77 3 -82 18 -15 51 -62 127 -96 156 -113 97 -336 86
-459 -22 -80 -70 -129 -217 -129 -385 1 -286 131 -446 365 -450 67 -1 89 3
135 24 92 43 158 128 189 247 l12 42 74 0 c41 0 76 -3 78 -7 3 -5 -4 -41 -14
-81 -66 -258 -288 -401 -565 -364 -215 29 -365 171 -420 398 -24 97 -24 317 0
403 28 104 76 190 141 257 63 65 115 96 205 125 68 22 252 25 325 5z m1150 0
c84 -22 145 -57 200 -113 59 -61 106 -148 113 -210 l5 -43 -77 0 c-64 0 -77 3
-82 18 -3 9 -17 41 -31 70 -50 102 -142 152 -279 152 -235 0 -373 -172 -374
-467 0 -116 13 -179 56 -270 60 -125 157 -184 309 -186 158 -1 262 79 315 243
l23 70 73 0 74 0 0 -28 c0 -44 -29 -131 -62 -190 -101 -178 -290 -264 -514
-234 -118 16 -198 54 -278 134 -113 113 -159 246 -160 463 0 210 46 346 159
461 63 65 115 96 205 125 68 22 252 25 325 5z m1057 3 c124 -27 221 -91 263
-175 24 -48 49 -167 37 -179 -3 -3 -38 -5 -77 -5 l-72 0 -7 41 c-21 130 -130
197 -307 187 -103 -6 -163 -34 -200 -95 -29 -47 -31 -125 -5 -166 29 -43 76
-62 300 -117 270 -66 324 -94 376 -197 21 -41 25 -62 25 -143 0 -151 -42 -222
-167 -286 -91 -46 -173 -64 -293 -64 -251 0 -409 111 -446 311 -17 94 -14 99
70 99 l69 0 7 -42 c12 -72 35 -117 82 -158 60 -52 124 -72 231 -72 196 2 301
77 290 209 -9 100 -62 137 -267 185 -383 90 -446 137 -446 333 0 71 5 100 22
137 43 95 140 171 250 197 55 13 204 13 265 0z m-7558 -61 c9 -24 81 -234 160
-468 79 -234 147 -425 151 -425 4 0 78 209 165 465 l157 465 117 3 116 3 0
-576 0 -575 -80 0 -81 0 3 460 c2 253 1 460 -2 460 -3 0 -75 -207 -160 -460
l-155 -460 -80 0 -81 0 -153 453 c-85 248 -158 456 -163 462 -4 5 -8 -199 -8
-453 l0 -462 -75 0 -75 0 0 575 0 575 114 0 114 0 16 -42z m1812 -523 c112
-308 204 -566 204 -573 0 -10 -21 -12 -87 -10 l-87 3 -55 168 -56 167 -226 0
-226 0 -60 -167 -61 -168 -81 -3 c-44 -2 -81 1 -81 5 0 4 95 263 212 576 l213
568 94 -3 94 -3 203 -560z m1096 541 c27 -10 70 -38 97 -62 63 -57 86 -117 86
-229 0 -67 -5 -89 -28 -137 -26 -52 -60 -91 -105 -118 -16 -9 -16 -11 1 -21
49 -29 87 -74 98 -112 6 -23 15 -110 19 -192 5 -109 12 -159 24 -183 9 -17 21
-32 26 -32 6 0 10 -9 10 -20 0 -19 -7 -20 -99 -20 l-99 0 -6 28 c-3 15 -10 98
-15 185 -11 178 -24 218 -82 252 -31 18 -55 20 -266 23 l-233 3 0 -245 0 -246
-80 0 -80 0 0 576 0 575 343 -3 c298 -4 348 -6 389 -22z m1210 -23 c7 -101 23
-93 -193 -93 l-189 0 0 -505 0 -505 -85 0 -85 0 0 505 0 505 -190 0 -190 0 0
70 0 70 464 0 464 0 4 -47z m-5207 -158 c256 -67 436 -291 463 -576 l8 -80
-60 3 -61 3 -7 67 c-13 139 -76 268 -175 360 -64 59 -134 94 -217 110 l-66 13
0 57 c0 57 1 58 28 58 15 0 55 -7 87 -15z m5603 -497 l-3 -73 -197 -3 -198 -2
0 75 0 75 200 0 201 0 -3 -72z"/>
<path d="M4202 1593 c-45 -126 -82 -231 -82 -235 0 -5 76 -8 170 -8 l170 0
-80 232 c-44 127 -80 233 -80 235 0 2 -4 3 -8 3 -4 0 -45 -102 -90 -227z"/>
<path d="M5120 1690 l0 -190 208 0 c243 0 292 9 341 65 35 40 45 83 39 161 -6
67 -29 101 -88 132 -42 21 -56 22 -272 22 l-228 0 0 -190z"/>
</g>
</svg>
